<svg width="34" height="41" viewBox="0 0 34 41" fill="none" xmlns="http://www.w3.org/2000/svg">
<path d="M2.91066 33.9056V8.43782C1.45143 8.72108 0.421387 9.9743 0.421387 11.4679V37.6825C0.421387 39.3906 1.79478 40.7983 3.50293 40.7983H22.3184C23.7862 40.7983 25.0137 39.7683 25.3313 38.3949H7.36559C4.90207 38.3949 2.91066 36.3692 2.91066 33.9056Z" fill="#54C4CF"/>
<path d="M6.68749 30.1288V4.67816C5.3141 4.98717 4.28406 6.22323 4.28406 7.69104V33.9056C4.28406 35.6138 5.65745 37.0215 7.3656 37.0215H26.1811C27.6489 37.0215 28.8763 35.9915 29.1939 34.6181H11.1424C8.67891 34.6181 6.68749 32.5923 6.68749 30.1288Z" fill="#54C4CF"/>
<path d="M15.5287 15.2619V23.4593H25.5716V15.2619L20.5501 11.0129L15.5287 15.2619Z" fill="#54C4CF"/>
<path d="M27.9235 8.60949H32.1381L25.6574 1.85413V6.3949C25.6574 7.62237 26.6875 8.60949 27.9235 8.60949Z" fill="#54C4CF"/>
<path d="M24.2841 6.39491V0.79834H11.1424C9.43427 0.79834 8.06088 2.20607 8.06088 3.91422V30.1288C8.06088 31.837 9.43427 33.2447 11.1424 33.2447H29.9579C31.666 33.2447 33.0394 31.837 33.0394 30.1288V9.98289H27.9235C25.9321 9.98289 24.2841 8.37774 24.2841 6.39491ZM27.6145 29.1245H13.4858C13.1081 29.1245 12.7991 28.8155 12.7991 28.4378C12.7991 28.0601 13.1081 27.7511 13.4858 27.7511H27.6231C28.0008 27.7511 28.3098 28.0601 28.3098 28.4378C28.3098 28.8155 28.0008 29.1245 27.6145 29.1245ZM29.0909 17.382C28.9536 17.5451 28.7647 17.6224 28.5759 17.6224C28.4214 17.6224 28.2669 17.5709 28.1381 17.4593L26.945 16.4292V24.0172C26.945 24.4464 26.5673 24.8327 26.1381 24.8327H14.9622C14.533 24.8327 14.1553 24.4464 14.1553 24.0172V16.4292L12.9622 17.4593C12.6703 17.7082 12.2583 17.6739 12.0094 17.382C11.7605 17.0902 11.7948 16.661 12.0866 16.4121L20.1038 9.58804C20.3613 9.37345 20.739 9.37345 20.9965 9.58804L29.0137 16.4121C29.2969 16.661 29.3399 17.0902 29.0909 17.382Z" fill="#54C4CF"/>
</svg>
