<svg width="41" height="61" viewBox="0 0 41 61" fill="none" xmlns="http://www.w3.org/2000/svg">
<path d="M21.9304 21.0526C21.8826 21.0478 21.8383 21.0253 21.8061 20.9896C21.774 20.9539 21.7563 20.9075 21.7565 20.8594V19.0822C21.7581 19.0383 21.7763 18.9966 21.8073 18.9656C21.8384 18.9345 21.88 18.9164 21.9239 18.9148C26.6632 18.6894 30.649 16.8414 33.2375 13.6669C35.8261 10.4924 36.7984 6.10732 35.8132 1.49046L35.6458 0.659806C35.6355 0.622005 35.614 0.588214 35.5841 0.562914C35.5542 0.537614 35.5173 0.522001 35.4783 0.518145L34.6799 0.447314C30.3399 0.25414 26.6052 1.54841 23.8686 4.21421C21.9408 6.15431 20.588 8.59031 19.96 11.2522C19.9569 11.2742 19.9471 11.2947 19.9321 11.311C19.917 11.3273 19.8974 11.3387 19.8757 11.3436C19.8541 11.3485 19.8315 11.3466 19.8109 11.3384C19.7903 11.3301 19.7726 11.3158 19.7604 11.2973C19.2739 10.6123 18.6804 10.01 18.0025 9.51363C16.5638 8.52425 14.9255 7.86269 13.2032 7.57564C11.4808 7.28859 9.71652 7.38304 8.0347 7.85233C8.00053 7.86146 7.97101 7.88304 7.95195 7.91283C7.93288 7.94262 7.92565 7.97846 7.93167 8.01331C8.11197 9.1466 9.60585 17.9811 19.0585 18.8053C19.1024 18.8114 19.1426 18.8329 19.1721 18.8659C19.2016 18.8989 19.2184 18.9414 19.2195 18.9856L19.1873 20.8401C19.1956 20.8851 19.1871 20.9317 19.1634 20.9709C19.1396 21.01 19.1023 21.0391 19.0585 21.0526C13.8933 21.4277 9.07499 23.7918 5.61746 27.6474C2.15993 31.503 0.332777 36.5495 0.520478 41.7249C0.708179 46.9003 2.8961 51.8012 6.62385 55.3962C10.3516 58.9912 15.3285 61 20.5073 61C25.6861 61 30.6631 58.9912 34.3908 55.3962C38.1186 51.8012 40.3065 46.9003 40.4942 41.7249C40.6819 36.5495 38.8547 31.503 35.3972 27.6474C31.9397 23.7918 27.1213 21.4277 21.9561 21.0526H21.9304ZM25.6458 6.04937C27.7391 4.08053 30.512 2.99629 33.3856 3.02297C33.4297 3.02107 33.4728 3.03597 33.5063 3.06467C33.5397 3.09336 33.5611 3.13369 33.5659 3.17751C33.8141 4.73131 33.7403 6.31951 33.3493 7.84364C32.9583 9.36777 32.2584 10.7953 31.2929 12.0378C29.2066 14.6134 25.9291 16.1138 22.0205 16.3391C21.9986 16.341 21.9766 16.3381 21.9559 16.3308C21.9351 16.3235 21.9162 16.3118 21.9004 16.2965C21.8845 16.2813 21.8721 16.2629 21.864 16.2424C21.8558 16.222 21.8521 16.2001 21.8531 16.1781C21.9819 11.8317 23.289 8.34171 25.6458 6.04293V6.04937ZM18.8653 16.1975C15.4848 15.6437 12.1751 13.815 10.9645 10.0674C10.9576 10.047 10.9554 10.0253 10.9581 10.004C10.9608 9.98265 10.9684 9.9622 10.9802 9.9442C10.9919 9.9262 11.0077 9.91112 11.0262 9.90011C11.0447 9.88911 11.0654 9.88245 11.0869 9.88066C13.008 9.75766 14.9081 10.3391 16.4313 11.5162C17.8296 12.6247 18.777 14.2038 19.0972 15.9592C19.1041 15.9914 19.103 16.0248 19.0939 16.0564C19.0848 16.088 19.068 16.1169 19.0451 16.1405C19.0221 16.164 18.9937 16.1816 18.9624 16.1915C18.931 16.2015 18.8977 16.2035 18.8653 16.1975ZM20.3463 58.3996C16.8886 58.4009 13.5082 57.3764 10.6329 55.4557C7.75757 53.5351 5.51666 50.8047 4.19373 47.61C2.8708 44.4153 2.52531 40.9 3.20098 37.5089C3.87665 34.1178 5.54312 31.0033 7.98948 28.5597C10.4358 26.116 13.5521 24.453 16.944 23.7811C20.3358 23.1092 23.8508 23.4585 27.044 24.785C30.2372 26.1115 32.9652 28.3554 34.8826 31.2328C36.8001 34.1102 37.8208 37.4918 37.8158 40.9495C37.8089 45.5788 35.9656 50.0163 32.6904 53.2879C29.4152 56.5595 24.9757 58.3979 20.3463 58.3996Z" fill="#54C4CF"/>
<path fill-rule="evenodd" clip-rule="evenodd" d="M11.6902 28.0021C14.2527 26.291 17.2651 25.3784 20.3464 25.3797C24.4752 25.3814 28.4345 27.0223 31.354 29.9419C34.2736 32.8614 35.9145 36.8207 35.9162 40.9495C35.9175 44.0308 35.0049 47.0432 33.2938 49.6057C31.5828 52.1682 29.1502 54.1656 26.3037 55.3454C23.4572 56.5251 20.3248 56.8341 17.3027 56.2333C14.2806 55.6325 11.5046 54.1489 9.32583 51.9701C7.14706 49.7913 5.66343 47.0153 5.06262 43.9932C4.46181 40.9711 4.77081 37.8387 5.95054 34.9922C7.13028 32.1458 9.12773 29.7131 11.6902 28.0021ZM24.9 39.6763V41.0272H26.2621V43.1721H24.9V46.5006H22.2202L20.427 43.1721H18.0525V46.5006H15.7724V43.1721H14.4177V41.0272H15.7724V39.6763H14.4177V37.5314H15.7724V35.4113H18.43L19.5853 37.5314H22.6052V35.4113H24.9V37.5314H26.2621V39.6763H24.9ZM22.6052 39.6763V41.0272H21.4903L20.7541 39.6763H22.6052ZM18.5436 39.6763L19.2714 41.0272H18.0525V39.6763H18.5436Z" fill="#54C4CF"/>
</svg>
