<svg width="44" height="48" viewBox="0 0 44 48" fill="none" xmlns="http://www.w3.org/2000/svg">
<path fill-rule="evenodd" clip-rule="evenodd" d="M21.6771 26.6718C14.7187 26.8051 7.88268 28.8455 1.96871 32.3697L0.666626 33.1455V48H3.3333H43.3334V33.2031L42.1095 32.4166C35.7171 28.3102 28.6355 26.5382 21.6771 26.6718ZM21.7137 31.9947C27.2637 31.8801 32.8424 33.3572 38.0002 36.3593V42.6666H6.00006V36.3854C10.8415 33.7547 16.2113 32.1094 21.7137 31.9947Z" fill="white"/>
<path d="M22 0C16.1405 0 11.3333 4.80722 11.3333 10.6667C11.3333 16.5262 16.1405 21.3334 22 21.3334C27.8594 21.3334 32.6667 16.5262 32.6667 10.6667C32.6667 4.80722 27.8594 0 22 0ZM22 5.33335C24.9771 5.33335 27.3333 7.68936 27.3333 10.6667C27.3333 13.6438 24.9771 16 22 16C19.0228 16 16.6666 13.6438 16.6666 10.6667C16.6666 7.68936 19.0228 5.33335 22 5.33335Z" fill="white"/>
</svg>
