<svg width="164" height="35" viewBox="0 0 164 35" fill="#fff" xmlns="http://www.w3.org/2000/svg" class="sc-gqjmRU gHPnca"><ellipse cx="25.547" cy="10.724" rx="5.837" ry="5.505" fill="#fff"></ellipse><path d="M15.9407 6.83104C18.2201 8.98099 18.2201 12.4668 15.9407 14.6167C13.6614 16.7667 9.96591 16.7666 7.68658 14.6167C5.40726 12.4667 4.6896 4.00412 4.6896 4.00412C4.6896 4.00412 13.6614 4.68109 15.9407 6.83104Z" fill="#fff"></path><path d="M15.9407 28.2315C18.2201 26.0815 18.2201 22.5957 15.9407 20.4458C13.6614 18.2958 9.96591 18.2958 7.68658 20.4458C5.40726 22.5958 4.6896 31.0584 4.6896 31.0584C4.6896 31.0584 13.6614 30.3814 15.9407 28.2315Z" fill="#fff"></path><path d="M22.1208 28.2315C19.8415 26.0815 19.8415 22.5957 22.1208 20.4458C24.4001 18.2958 28.0956 18.2958 30.3749 20.4458C32.6543 22.5958 33.3719 31.0584 33.3719 31.0584C33.3719 31.0584 24.4001 30.3814 22.1208 28.2315Z" fill="#fff"></path><path d="M39.9072 24.9512H42.0632V19.1832C42.0632 14.8152 44.6392 12.5472 47.8032 12.5472H47.9712V10.2232C45.2272 10.1112 43.1272 11.8472 42.0632 14.2552V10.4752H39.9072V24.9512Z"></path><path d="M55.274 25.2872C58.018 25.2872 59.782 24.1952 61.238 22.5712L59.894 21.3672C58.718 22.5992 57.318 23.4112 55.33 23.4112C52.754 23.4112 50.542 21.6472 50.234 18.5112H61.714C61.742 18.2592 61.742 18.0912 61.742 17.8112C61.742 13.5832 59.278 10.1672 54.994 10.1672C50.99 10.1672 48.05 13.5272 48.05 17.6992V17.7552C48.05 22.2352 51.298 25.2872 55.274 25.2872ZM50.234 16.9152C50.514 14.0872 52.418 11.9872 54.938 11.9872C57.822 11.9872 59.334 14.2832 59.558 16.9152H50.234Z"></path><path d="M63.8363 24.9512H65.9923V16.6632C65.9923 13.9472 67.8403 12.1272 70.3323 12.1272C72.8803 12.1272 74.3363 13.8072 74.3363 16.4952V24.9512H76.4923V15.9632C76.4923 12.5192 74.4483 10.1672 70.9483 10.1672C68.4563 10.1672 66.9443 11.4272 65.9923 12.9952V10.4752H63.8363V24.9512Z"></path><path d="M79.4102 24.9512H81.5662V16.6912C81.5662 14.0312 83.3022 12.1272 85.5982 12.1272C87.8942 12.1272 89.3222 13.7232 89.3222 16.4392V24.9512H91.4782V16.6072C91.4782 13.7512 93.2702 12.1272 95.4542 12.1272C97.8062 12.1272 99.2062 13.6952 99.2062 16.4952V24.9512H101.362V15.9912C101.362 12.4072 99.3182 10.1672 95.9862 10.1672C93.4662 10.1672 91.9262 11.4552 90.8902 13.0512C90.1062 11.4272 88.5942 10.1672 86.2422 10.1672C83.8062 10.1672 82.5182 11.4832 81.5662 12.9112V10.4752H79.4102V24.9512Z"></path><path d="M110.971 25.2872C115.339 25.2872 118.559 21.8152 118.559 17.7272V17.6712C118.559 13.5832 115.367 10.1672 111.027 10.1672C106.659 10.1672 103.467 13.6392 103.467 17.7272V17.7832C103.467 21.8712 106.631 25.2872 110.971 25.2872ZM111.027 23.3552C107.975 23.3552 105.679 20.8352 105.679 17.7272V17.6712C105.679 14.6192 107.835 12.0712 110.971 12.0712C114.023 12.0712 116.347 14.6192 116.347 17.7272V17.7832C116.347 20.8352 114.163 23.3552 111.027 23.3552Z"></path><path d="M120.785 24.9512H122.941V16.6632C122.941 13.9472 124.789 12.1272 127.281 12.1272C129.829 12.1272 131.285 13.8072 131.285 16.4952V24.9512H133.441V15.9632C133.441 12.5192 131.397 10.1672 127.897 10.1672C125.405 10.1672 123.893 11.4272 122.941 12.9952V10.4752H120.785V24.9512Z"></path><path d="M142.686 25.2872C145.43 25.2872 147.194 24.1952 148.65 22.5712L147.306 21.3672C146.13 22.5992 144.73 23.4112 142.742 23.4112C140.166 23.4112 137.954 21.6472 137.646 18.5112H149.126C149.154 18.2592 149.154 18.0912 149.154 17.8112C149.154 13.5832 146.69 10.1672 142.406 10.1672C138.402 10.1672 135.462 13.5272 135.462 17.6992V17.7552C135.462 22.2352 138.71 25.2872 142.686 25.2872ZM137.646 16.9152C137.926 14.0872 139.83 11.9872 142.35 11.9872C145.234 11.9872 146.746 14.2832 146.97 16.9152H137.646Z"></path><path d="M156.726 22.5432L151.462 10.4752H149.082L155.662 24.8952C154.794 26.9392 153.982 27.6112 152.694 27.6112C151.77 27.6112 151.126 27.4432 150.426 27.0792L149.698 28.7872C150.678 29.2632 151.574 29.5152 152.778 29.5152C154.962 29.5152 156.362 28.4232 157.594 25.4272L163.67 10.4752H161.374L156.726 22.5432Z"></path></svg>